<?xml version="1.0" encoding="UTF-8" standalone="no"?>
<!DOCTYPE svg PUBLIC "-//W3C//DTD SVG 1.1//EN" "http://www.w3.org/Graphics/SVG/1.1/DTD/svg11.dtd">
<svg width="100%" height="100%" viewBox="0 0 24 24" version="1.1" xmlns="http://www.w3.org/2000/svg" xmlns:xlink="http://www.w3.org/1999/xlink" xml:space="preserve" xmlns:serif="http://www.serif.com/" style="fill-rule:evenodd;clip-rule:evenodd;stroke-linejoin:round;stroke-miterlimit:2;">
    <path d="M12,0C5.37,0 0,5.37 0,12C0.005,13.229 0.198,14.45 0.574,15.62C0.848,15.5 1.14,15.36 1.43,15.24C2.8,14.7 4.06,14.88 5.31,15.64C5.31,15.64 5.77,15.92 5.91,16C6.5,16.38 7.05,16.73 7.58,16.73C8.09,16.73 8.59,16.59 8.8,15.61C9.13,14.08 9.94,10.31 10.29,8.45C10.5,7.35 10.61,6.76 10.73,6.36C10.93,5.65 11.31,5.27 11.84,5.21C11.84,5.21 11.93,5.2 12,5.2C12.07,5.2 12.15,5.21 12.15,5.21C12.69,5.27 13.07,5.65 13.28,6.36C13.39,6.76 13.5,7.35 13.71,8.45C14.06,10.31 14.87,14.08 15.2,15.61C15.41,16.59 15.91,16.73 16.42,16.73C16.95,16.73 17.5,16.38 18.09,16C18.23,15.92 18.69,15.64 18.69,15.64C19.95,14.88 21.2,14.7 22.57,15.24C22.87,15.36 23.16,15.5 23.44,15.63C23.812,14.456 24.001,13.232 24,12C24,5.37 18.63,0 12,0M12,9.79C11.6,11.8 11,14.71 10.7,16C10.34,17.7 9.2,18.66 7.58,18.66C6.5,18.66 5.64,18.12 4.88,17.65C4.5,17.4 4.08,17.13 3.63,17C3.172,16.842 2.675,16.831 2.21,16.97C1.886,17.074 1.572,17.204 1.27,17.36C3.297,21.421 7.461,23.998 12,24C16.541,23.996 20.706,21.414 22.73,17.35C22.428,17.194 22.114,17.064 21.79,16.96C21.33,16.817 20.838,16.82 20.38,16.97C19.92,17.13 19.5,17.4 19.12,17.65C18.36,18.12 17.5,18.66 16.42,18.66C14.8,18.66 13.67,17.7 13.3,16C13,14.71 12,9.79 12,9.79Z" style="fill:rgb(204,9,47);fill-rule:nonzero;"/>
</svg>
