<?xml version="1.0" encoding="UTF-8" standalone="no"?>
<!DOCTYPE svg PUBLIC "-//W3C//DTD SVG 1.1//EN" "http://www.w3.org/Graphics/SVG/1.1/DTD/svg11.dtd">
<svg width="100%" height="100%" viewBox="0 0 24 24" version="1.1" xmlns="http://www.w3.org/2000/svg" xmlns:xlink="http://www.w3.org/1999/xlink" xml:space="preserve" xmlns:serif="http://www.serif.com/" style="fill-rule:evenodd;clip-rule:evenodd;stroke-linejoin:round;stroke-miterlimit:2;">
    <path d="M16.331,18.171L16.331,17.06L16.309,17.07C16.059,17.191 15.787,17.26 15.508,17.273C15.219,17.295 14.933,17.211 14.702,17.036C14.537,16.909 14.415,16.735 14.35,16.538C14.28,16.322 14.272,16.091 14.327,15.871C14.379,15.646 14.505,15.445 14.684,15.302C14.844,15.168 15.039,15.084 15.246,15.06C15.611,15.019 15.981,15.088 16.307,15.258L16.331,15.271L16.331,14.154L16.28,14.14C15.954,14.036 15.611,13.991 15.269,14.008C14.957,14.016 14.65,14.086 14.366,14.214C14.079,14.346 13.826,14.541 13.627,14.785C13.005,15.571 12.988,16.686 13.587,17.49C13.882,17.868 14.296,18.135 14.762,18.246C15.253,18.366 15.768,18.348 16.249,18.194L16.331,18.171M5.336,18.171L5.336,17.06L5.314,17.07C5.064,17.191 4.792,17.26 4.513,17.273C4.224,17.295 3.938,17.211 3.707,17.036C3.542,16.909 3.42,16.736 3.356,16.538C3.285,16.322 3.277,16.091 3.332,15.871C3.384,15.646 3.509,15.445 3.689,15.302C3.849,15.168 4.044,15.084 4.251,15.06C4.616,15.019 4.986,15.088 5.312,15.258L5.336,15.271L5.336,14.154L5.285,14.14C4.959,14.036 4.616,13.991 4.274,14.008C3.962,14.016 3.655,14.086 3.371,14.214C3.084,14.346 2.831,14.541 2.631,14.785C2.009,15.571 1.993,16.685 2.59,17.49C2.885,17.868 3.3,18.135 3.766,18.246C4.257,18.366 4.771,18.348 5.253,18.194L5.336,18.171M9.26,17.249L9.256,18.206L9.326,18.218C9.546,18.259 9.767,18.287 9.99,18.303C10.185,18.322 10.381,18.325 10.577,18.315C10.764,18.301 10.949,18.266 11.128,18.211C11.338,18.151 11.533,18.048 11.699,17.906C11.849,17.778 11.963,17.613 12.032,17.428C12.151,17.119 12.149,16.775 12.025,16.468C11.961,16.308 11.858,16.166 11.727,16.054C11.6,15.94 11.451,15.853 11.289,15.799L10.567,15.531C10.481,15.494 10.411,15.427 10.37,15.343C10.338,15.273 10.341,15.192 10.378,15.124C10.415,15.063 10.468,15.014 10.532,14.982C10.613,14.943 10.7,14.918 10.789,14.908C10.942,14.886 11.097,14.887 11.249,14.913C11.429,14.933 11.607,14.964 11.782,15.009L11.82,15.017L11.82,14.134L11.751,14.119C11.572,14.076 11.391,14.044 11.208,14.022C10.971,13.991 10.731,13.99 10.494,14.019C10.194,14.046 9.909,14.162 9.673,14.349C9.513,14.475 9.392,14.642 9.322,14.833C9.218,15.123 9.217,15.441 9.322,15.732C9.376,15.877 9.462,16.006 9.574,16.113C9.671,16.206 9.781,16.286 9.901,16.349C10.058,16.433 10.225,16.498 10.398,16.544C10.455,16.561 10.512,16.579 10.568,16.598L10.653,16.629L10.677,16.639C10.761,16.669 10.839,16.717 10.903,16.779C10.948,16.821 10.983,16.873 11.004,16.93C11.018,16.983 11.018,17.038 11.005,17.091C10.978,17.176 10.918,17.248 10.839,17.289C10.753,17.333 10.66,17.362 10.564,17.375C10.423,17.397 10.28,17.404 10.137,17.396C9.95,17.381 9.764,17.357 9.58,17.322C9.484,17.301 9.388,17.279 9.293,17.255L9.26,17.249ZM6.785,18.244L7.835,18.244L7.835,14.077L6.785,14.077L6.785,18.244ZM18.947,15.308C19.142,15.149 19.387,15.062 19.639,15.062C19.968,15.062 20.28,15.211 20.488,15.466C20.648,15.661 20.735,15.906 20.735,16.158C20.735,16.487 20.586,16.799 20.331,17.007L20.314,17.021C20.123,17.168 19.888,17.247 19.647,17.247C19.046,17.247 18.551,16.752 18.551,16.151C18.551,15.825 18.696,15.516 18.947,15.308M17.422,16.162C17.441,17.352 18.425,18.321 19.615,18.321C19.774,18.321 19.933,18.303 20.088,18.269C21.094,18.079 21.829,17.191 21.829,16.167C21.829,15.416 21.434,14.718 20.789,14.332C20.44,14.116 20.038,14.002 19.628,14.002C18.436,14.002 17.448,14.969 17.422,16.162M22.961,10.728C22.973,11.004 23.204,11.225 23.481,11.225C23.757,11.225 23.988,11.004 24,10.728L24,9.573C23.988,9.297 23.757,9.076 23.481,9.076C23.204,9.076 22.973,9.297 22.961,9.573L22.961,10.728M20.117,10.728C20.138,10.999 20.366,11.21 20.638,11.21C20.909,11.21 21.137,10.999 21.158,10.728L21.158,8.139C21.141,7.866 20.912,7.65 20.638,7.65C20.364,7.65 20.135,7.866 20.118,8.139L20.118,10.728M17.231,11.771C17.252,12.041 17.48,12.252 17.751,12.252C18.021,12.252 18.249,12.041 18.27,11.771L18.27,6.17C18.258,5.894 18.027,5.673 17.751,5.673C17.474,5.673 17.243,5.894 17.231,6.17L17.231,11.771M14.393,10.728C14.41,11.001 14.639,11.217 14.913,11.217C15.187,11.217 15.416,11.001 15.433,10.728L15.433,8.139C15.421,7.863 15.19,7.642 14.913,7.642C14.637,7.642 14.406,7.863 14.394,8.139L14.394,10.728M11.494,10.728C11.52,10.994 11.746,11.199 12.014,11.199C12.281,11.199 12.507,10.994 12.533,10.728L12.533,9.573C12.521,9.297 12.29,9.076 12.014,9.076C11.737,9.076 11.506,9.297 11.494,9.573L11.494,10.728M8.624,10.728C8.636,11.004 8.867,11.225 9.144,11.225C9.42,11.225 9.651,11.004 9.663,10.728L9.663,8.139C9.651,7.863 9.42,7.642 9.144,7.642C8.867,7.642 8.636,7.863 8.624,8.139L8.624,10.728M5.737,11.771C5.749,12.047 5.98,12.268 6.257,12.268C6.533,12.268 6.764,12.047 6.776,11.771L6.776,6.17C6.764,5.894 6.533,5.673 6.257,5.673C5.98,5.673 5.749,5.894 5.737,6.17L5.737,11.771M2.876,10.728C2.9,10.996 3.127,11.204 3.396,11.204C3.665,11.204 3.892,10.996 3.916,10.728L3.916,8.139C3.904,7.863 3.673,7.642 3.396,7.642C3.12,7.642 2.889,7.863 2.877,8.139L2.877,10.728M0,10.728C0.021,10.998 0.249,11.209 0.52,11.209C0.79,11.209 1.018,10.998 1.039,10.728L1.039,9.573C1.027,9.297 0.796,9.076 0.519,9.076C0.243,9.076 0.012,9.297 0,9.573L0,10.728" style="fill:rgb(0,158,220);fill-rule:nonzero;"/>
</svg>
